<?xml version="1.0" encoding="utf-8"?>
<!-- Generator: Adobe Illustrator 16.0.0, SVG Export Plug-In . SVG Version: 6.00 Build 0)  -->
<!DOCTYPE svg PUBLIC "-//W3C//DTD SVG 1.1//EN" "http://www.w3.org/Graphics/SVG/1.1/DTD/svg11.dtd">
<svg version="1.1" id="Layer_1" xmlns="http://www.w3.org/2000/svg" xmlns:xlink="http://www.w3.org/1999/xlink" x="0px" y="0px"
	 width="138px" height="31px" viewBox="0 0 138 31" enable-background="new 0 0 138 31" xml:space="preserve">
<linearGradient id="SVGID_1_" gradientUnits="userSpaceOnUse" x1="43.3335" y1="-8.9839" x2="43.3335" y2="-5.562" gradientTransform="matrix(8 0 0 -8 -334 -42.5)">
	<stop  offset="0" style="stop-color:#9F2FFF"/>
	<stop  offset="1" style="stop-color:#0BB1D3"/>
</linearGradient>
<path fill="url(#SVGID_1_)" d="M18.914,17.133c1.667-1.668,2.586-3.886,2.586-6.245v-0.058C21.5,5.961,17.539,2,12.669,2
	s-8.831,3.961-8.831,8.831v0.058c0,2.359,0.919,4.576,2.586,6.245l0.684,0.684c1.808,1.808,3.076,4.015,3.742,6.447
	c-1.836,0.39-3.039,1.346-3.039,2.462c0,1.486,2.134,2.649,4.857,2.649s4.857-1.163,4.857-2.649c0-1.115-1.202-2.072-3.039-2.463
	c0.666-2.432,1.935-4.64,3.742-6.446L18.914,17.133z M16.643,26.726c0,0.836-1.632,1.767-3.974,1.767s-3.974-0.931-3.974-1.767
	c0-0.658,0.992-1.314,2.365-1.604c0.056,0.266,0.114,0.529,0.155,0.799c0.111,0.722,0.722,1.246,1.454,1.246
	s1.343-0.524,1.454-1.246c0.042-0.27,0.099-0.535,0.155-0.799C15.651,25.411,16.643,26.067,16.643,26.726z M13.25,25.785
	c-0.044,0.289-0.289,0.499-0.581,0.499c-0.292,0-0.537-0.21-0.581-0.499c-0.504-3.277-2.01-6.248-4.355-8.594l-0.684-0.684
	c-1.5-1.501-2.328-3.497-2.328-5.62v-0.058c0-4.382,3.565-7.947,7.948-7.947s7.947,3.565,7.947,7.947v0.058
	c0,2.123-0.827,4.119-2.328,5.62l-0.684,0.684C15.26,19.537,13.754,22.508,13.25,25.785z M12.669,4.649
	c-3.409,0-6.182,2.772-6.182,6.181s2.773,6.181,6.182,6.181s6.181-2.772,6.181-6.181S16.078,4.649,12.669,4.649z M12.669,16.129
	c-2.922,0-5.298-2.376-5.298-5.298c0-2.921,2.376-5.298,5.298-5.298c2.921,0,5.298,2.377,5.298,5.298
	C17.968,13.752,15.591,16.129,12.669,16.129z M10.462,17.896h0.883v0.883h-0.883V17.896z M12.228,17.896h0.883v0.883h-0.883V17.896z
	 M13.994,17.896h0.883v0.883h-0.883V17.896z"/>
<text transform="matrix(1 0 0 1 27.751 23.5332)" fill="#4E66F8" font-family="'Poppins-Black'" font-size="19.497" letter-spacing="2">HETCHLY</text>
</svg>
